<?xml version="1.0" encoding="utf-8"?>
<!DOCTYPE svg PUBLIC "-//W3C//DTD SVG 1.1//EN" "http://www.w3.org/Graphics/SVG/1.1/DTD/svg11.dtd">
<svg version="1.1" id="filckr" xmlns="http://www.w3.org/2000/svg" xmlns:xlink="http://www.w3.org/1999/xlink" x="0px" y="0px"
	 width="37px" height="37px" viewBox="0 0 37 37" enable-background="new 0 0 37 37" xml:space="preserve">
<path fill="#199EDA" d="M18.5,1.05C8.835,1.05,1,8.885,1,18.55c0,9.665,7.835,17.5,17.5,17.5c9.666,0,17.5-7.835,17.5-17.5
	C36,8.885,28.166,1.05,18.5,1.05z M11.777,23.015c-2.632,0-4.767-2.013-4.767-4.494c0-2.481,2.135-4.494,4.767-4.494
	c2.634,0,4.768,2.013,4.768,4.494C16.545,21.002,14.411,23.015,11.777,23.015z M24.489,23.015c-2.631,0-4.767-2.013-4.767-4.494
	c0-2.481,2.136-4.494,4.767-4.494c2.634,0,4.769,2.013,4.769,4.494C29.258,21.002,27.123,23.015,24.489,23.015z"/>
</svg>
