<?xml version="1.0" encoding="utf-8"?>
<!DOCTYPE svg PUBLIC "-//W3C//DTD SVG 1.1//EN" "http://www.w3.org/Graphics/SVG/1.1/DTD/svg11.dtd">
<svg version="1.1" id="gplus" xmlns="http://www.w3.org/2000/svg" xmlns:xlink="http://www.w3.org/1999/xlink" x="0px" y="0px"
	 width="37px" height="37px" viewBox="0 0 37 37" enable-background="new 0 0 37 37" xml:space="preserve">
<g>
	<path fill="#199EDA" d="M15.135,16h0.002c0.48,0,0.886,0.424,1.2,0.087c0.493-0.524,0.71-1.243,0.581-2.16
		C16.688,12.29,15.441,11,14.136,11h-0.053c-0.462,0-0.873,0.203-1.186,0.537c-0.486,0.521-0.692,0.845-0.563,1.76
		C12.562,14.934,13.838,16,15.115,16H15.135z"/>
	<path fill="#199EDA" d="M16.559,21.907c-0.127-0.083-0.262-0.373-0.398-0.463C15.758,21.331,15.33,21,14.893,21h-0.052
		c-2.008,0-3.773,1.404-3.773,2.705c0,1.415,1.511,2.715,3.438,2.715c2.542,0,3.831-0.8,3.831-2.419c0-0.153-0.021-0.31-0.061-0.468
		C18.104,22.902,17.49,22.5,16.559,21.907z"/>
	<path fill="#199EDA" d="M18.5,1C8.836,1,1,8.836,1,18.501S8.836,36,18.5,36S36,28.166,36,18.501S28.164,1,18.5,1z M16.93,27.933
		c-0.75,0.204-1.562,0.303-2.413,0.303c-0.947,0-1.859-0.116-2.708-0.316c-1.645-0.39-2.86-1.147-3.429-2.097
		c-0.243-0.412-0.367-0.894-0.367-1.348c0-0.467,0.118-0.923,0.353-1.392C9.268,21.284,11.642,20,14.273,20h0.075
		c-0.213,0-0.316-0.66-0.316-1.046c0-0.191,0.024-0.275,0.079-0.473c-2.759-0.06-4.824-2.011-4.824-4.508
		c0-1.763,1.503-3.69,3.654-4.384C13.585,9.381,14.241,9,14.888,9h5.899c0.202,0,0.381,0.411,0.443,0.591
		c0.061,0.179-0.008,0.598-0.171,0.709l-1.318,0.726C19.661,11.081,19.565,11,19.467,11h-0.472c0.609,1,0.968,1.805,0.968,2.902
		c0,1.21-0.655,2.369-1.843,3.242c-0.92,0.671-0.956,0.92-0.956,1.304c0.01,0.21,0.652,0.93,1.357,1.396
		c1.646,1.091,2.259,2.176,2.259,3.963C20.78,25.669,19.268,27.297,16.93,27.933z M29.795,19H27v3.031
		C27,22.271,26.232,23,25.977,23h-0.955C24.765,23,25,22.271,25,22.031V19h-3.798C20.945,19,21,18.694,21,18.453V17.56
		c0-0.24-0.055-1.56,0.202-1.56H25v-2.02c0-0.24-0.235-0.98,0.021-0.98h0.955C26.232,13,27,13.74,27,13.98V16h2.795
		C30.05,16,30,17.319,30,17.56v0.894C30,18.694,30.05,19,29.795,19z"/>
</g>
</svg>
