<?xml version="1.0" encoding="utf-8"?>
<!DOCTYPE svg PUBLIC "-//W3C//DTD SVG 1.1//EN" "http://www.w3.org/Graphics/SVG/1.1/DTD/svg11.dtd">
<svg version="1.1" id="dogdocs" xmlns="http://www.w3.org/2000/svg" xmlns:xlink="http://www.w3.org/1999/xlink" x="0px" y="0px"
	 width="282px" height="60px" viewBox="0 0 282 60" enable-background="new 0 0 282 60" xml:space="preserve">
<path fill="#FFFFFF" d="M1,50.694V1.592h15.234c15.903,0,19.401,7.391,19.401,23.625c0,16.632-3.029,25.478-19.401,25.478H1z
	 M16.234,10.912h-6.102v30.44h6.102c8.99,0,9.865-6.047,9.865-16.136C26.099,15.255,25.224,10.912,16.234,10.912"/>
<path fill="#FFFFFF" d="M41.019,26.498c0-16.521,4.573-25.757,18.924-25.757c14.375,0,18.932,9.236,18.932,25.757
	c0,16.499-4.558,25.034-18.932,25.034C45.592,51.532,41.019,42.997,41.019,26.498 M69.346,26.498
	c0-10.602-1.885-16.294-9.403-16.294c-7.51,0-9.401,5.693-9.401,16.294c0,10.601,1.891,15.579,9.401,15.579
	C67.461,42.077,69.346,37.099,69.346,26.498"/>
<path fill="#FFFFFF" d="M132.37,50.694V1.592h15.234c15.896,0,19.387,7.391,19.387,23.625c0,16.632-3.031,25.478-19.387,25.478
	H132.37z M147.604,10.912h-6.115v30.44h6.115c8.99,0,9.857-6.047,9.857-16.136C157.461,15.255,156.594,10.912,147.604,10.912"/>
<path fill="#FFFFFF" d="M172.381,26.498c0-16.521,4.566-25.757,18.918-25.757c14.365,0,18.932,9.236,18.932,25.757
	c0,16.499-4.566,25.034-18.932,25.034C176.947,51.532,172.381,42.997,172.381,26.498 M200.699,26.498
	c0-10.602-1.877-16.294-9.4-16.294c-7.51,0-9.387,5.693-9.387,16.294c0,10.601,1.877,15.579,9.387,15.579
	C198.822,42.077,200.699,37.099,200.699,26.498"/>
<path fill="#FFFFFF" d="M246.359,49.616c0,0-7.988,1.924-13.301,1.924c-14.08,0-17.438-8.316-17.438-25.404
	c0-18.496,4.559-25.404,17.438-25.404c5.717,0,13.371,2.066,13.371,2.066l-0.283,8.612c0,0-8.115-0.995-11.734-0.995
	c-7.057,0-9.262,2.85-9.262,15.721c0,12.178,1.621,15.721,9.523,15.721c3.357,0,11.473-1.07,11.473-1.07L246.359,49.616z"/>
<path fill="#FFFFFF" d="M279.32,11.478c0,0-8.115-1.14-12.01-1.14c-3.629,0-5.912,1.425-5.912,4.276
	c0,3.205,1.289,4.049,8.328,7.254C277.906,25.563,281,28.202,281,36.593c0,10.037-5.434,14.939-14.898,14.939
	c-5.107,0-14.098-1.992-14.098-1.992l0.939-8.822c0,0,8.336,1.215,13.1,1.215c3.613,0,5.691-1.35,5.691-5.135
	c0-2.979-1.139-3.906-6.771-6.386c-10.27-4.548-12.816-7.27-12.816-15.661c0-9.389,6.301-14.025,15.164-14.025
	c5.164,0,12.744,1.945,12.744,1.945L279.32,11.478z"/>
<path fill="#FFFFFF" d="M117.201,33.392c-0.704,0-1.265-0.6-1.265-1.338s0.561-1.335,1.265-1.335c0.69,0,1.26,0.597,1.26,1.335
	S117.891,33.392,117.201,33.392 M102.579,0.732c-13.477,0-18.312,7.617-18.312,25.26c0,10.2,1.579,17.54,6.215,21.663v11.619h9.117
	v-7.908c1.04,0.113,2.148,0.166,3.322,0.166c1.912,0,4.21-0.166,6.428-0.391v8.133h9.111V39.548
	c5.874-2.379,8.391-4.516,9.409-7.771c0.525-1.645,0.661-2.782,0.661-2.782h-10.049v-4.35h-14.551v7.448l5.427,1.299v8.33
	c0,0-2.817,0.279-5.569,0.279c-8.327,0-9.993-3.695-9.993-16.009c0-12.735,2.348-15.654,10.257-15.654
	c6.109,0,14.166,0.928,14.166,0.928l0.264-8.469C118.482,2.798,109.628,0.732,102.579,0.732"/>
</svg>
