<?xml version="1.0" encoding="utf-8"?>
<!DOCTYPE svg PUBLIC "-//W3C//DTD SVG 1.1//EN" "http://www.w3.org/Graphics/SVG/1.1/DTD/svg11.dtd">
<svg version="1.1" id="vimeo" xmlns="http://www.w3.org/2000/svg" xmlns:xlink="http://www.w3.org/1999/xlink" x="0px" y="0px"
	 width="37px" height="37px" viewBox="0 0 37 37" enable-background="new 0 0 37 37" xml:space="preserve">
<path fill="#199EDA" d="M18.5,1C8.834,1,1,8.835,1,18.5S8.834,36,18.5,36S36,28.165,36,18.5S28.166,1,18.5,1z M29.514,13.438
	c-1.244,7.025-8.188,12.975-10.278,14.332c-2.091,1.361-3.995-0.543-4.688-1.982c-0.791-1.642-3.161-10.537-3.783-11.273
	S8.279,15.25,8.279,15.25l-0.902-1.188c0,0,3.782-4.534,6.662-5.102c3.054-0.601,3.049,4.704,3.783,7.648
	c0.711,2.848,1.188,4.477,1.809,4.477s1.808-1.587,3.105-4.023c1.3-2.437-0.057-4.59-2.598-3.058
	C21.154,7.885,30.756,6.414,29.514,13.438z"/>
</svg>
